<?xml version="1.0" encoding="UTF-8"?>
<svg width="106px" height="15px" viewBox="0 0 106 15" version="1.1" xmlns="http://www.w3.org/2000/svg" xmlns:xlink="http://www.w3.org/1999/xlink">
    <!-- Generator: Sketch 51.2 (57519) - http://www.bohemiancoding.com/sketch -->
    <title>Fill 1</title>
    <desc>Created with Sketch.</desc>
    <defs></defs>
    <g id="Page-1" stroke="none" stroke-width="1" fill="none" fill-rule="evenodd">
        <path d="M28,0 L27.7,0.1 L27,0.3 L26.7,0.4 L26.4,0.5 L25.8,0.799 L25.5,1 L25.2,1.2 L24.6,1.599 L24.4,1.799 L24,1.9 L23.8,2.1 L23.6,2.399 L23.4,2.7 L23.2,3 L23.001,3.2 L22.8,3.499 L22.6,3.8 L22.5,4.1 L22.4,4.399 L22.3,4.8 L22.2,5.099 L22.101,5.399 L22,5.6 L21.9,5.999 L21.8,6.299 L21.8,6.6 L21.8,7.299 L21.8,7.6 L21.8,7.899 L21.8,8.2 L21.8,8.6 L21.8,8.899 L22,9.5 L22.101,9.899 L22.4,10.7 L22.6,11.1 L22.7,11.399 L22.9,11.7 L23.1,12 L23.3,12.299 L23.5,12.6 L23.701,12.8 L24.2,13.199 L24.5,13.399 L24.8,13.6 L25,13.8 L25.4,14 L25.701,14.099 L26.1,14.299 L27,14.5 L27.3,14.6 L27.6,14.7 L27.9,14.8 L28.201,14.8 L28.5,14.8 L29.5,14.8 L30,14.8 L30.3,14.8 L31,14.7 L31.5,14.6 L31.8,14.5 L32.1,14.399 L32.4,14.299 L32.8,14.099 L33.1,14 L33.5,13.8 L33.701,13.6 L34.1,13.299 L34.3,13.1 L34.601,12.8 L34.8,12.6 L34.8,12.499 L34.701,12.2 L34.5,12 L34,11.399 L33.8,11.2 L33.5,10.799 L33.3,10.599 L33.2,10.499 L33,10.3 L32.8,10.2 L32.6,10.2 L32.5,10.2 L32.3,10.3 L32.001,10.499 L31.6,10.7 L31.3,10.799 L31,10.9 L30.7,11 L30.201,11.2 L29.9,11.299 L29.7,11.299 L29.4,11.399 L29,11.399 L28.5,11.399 L28.201,11.299 L28,11.2 L27.7,11.1 L27.3,10.9 L27,10.7 L26.601,10.4 L26.4,10.2 L26.1,9.799 L25.9,9.5 L25.8,9.2 L25.701,8.899 L25.601,8.5 L25.601,8.2 L25.601,7.7 L25.601,7.4 L25.601,6.799 L25.601,6.5 L25.701,6.2 L25.8,5.9 L25.9,5.6 L26,5.299 L26.1,5 L26.3,4.7 L26.5,4.399 L26.601,4.299 L26.9,4.1 L27.3,3.9 L27.6,3.8 L27.9,3.7 L28.3,3.6 L28.6,3.499 L29,3.499 L29.3,3.499 L29.8,3.499 L30.101,3.6 L30.5,3.7 L30.8,3.8 L31.2,4 L31.5,4.1 L31.9,4.399 L32.1,4.5 L32.2,4.5 L32.3,4.5 L32.4,4.399 L32.6,4.199 L33,4.199 L33.2,4 L33.5,3.6 L33.701,3.399 L33.9,3.2 L34.1,3 L34.3,2.799 L34.5,2.6 L34.601,2.399 L34.601,2.2 L34.601,2 L34.5,1.9 L34.4,1.799 L34.2,1.599 L33.6,1.2 L33.1,0.899 L32.8,0.7 L32.4,0.4 L32.1,0.3 L31.4,0.2 L31,0.1 L30.7,0 L28,0 Z M95.701,0.2 L95.5,0.2 L95.3,0.2 L95.2,0.3 L95.1,0.4 L95.001,0.7 L95.001,0.899 L95.001,1.2 L95.001,1.799 L95.001,3.499 L95.001,4.5 L95.001,4.8 L95.1,7.2 L95.1,7.5 L95.1,9.899 L95.1,10.2 L95.1,11.2 L95.1,11.499 L95.2,12.499 L95.2,12.8 L95.1,13.5 L95.1,13.8 L95.1,14 L95.2,14.099 L95.3,14.2 L95.5,14.2 L95.8,14.2 L96.099,14.2 L97,14.099 L98.401,14.099 L99.501,14.2 L101.201,14.099 L102.7,14.099 L104.901,14.2 L105.2,14.2 L105.401,14.2 L105.6,14.2 L105.701,14.099 L105.8,14 L105.9,13.8 L105.9,13.299 L105.8,12.8 L105.8,12.499 L105.8,11.399 L105.8,11.2 L105.701,11.1 L105.6,11 L105.401,10.9 L105.099,10.9 L104.8,10.9 L104.1,11 L103.8,11 L101,11 L100.7,11 L100.1,11 L99.401,11 L99.2,11 L99.1,10.9 L99.1,10.799 L99.1,10.7 L99.1,10.499 L99.2,7.899 L99.2,7.6 L99.1,6.5 L99.1,6.2 L99.1,5.099 L99.1,4.8 L99.2,3.7 L99.2,3.399 L99.2,2.299 L99.2,0.599 L99,0.4 L98.9,0.3 L98.7,0.3 L97.3,0.3 L97,0.3 L96,0.2 L95.701,0.2 Z M91.5,0.2 L90.8,0.3 L90.501,0.3 L87.9,0.3 L87.6,0.3 L86.4,0.4 L86.1,0.4 L84.901,0.3 L84.6,0.3 L83.4,0.3 L82.201,0.2 L81.9,0.2 L81.7,0.2 L81.6,0.3 L81.501,0.5 L81.501,0.799 L81.401,1.799 L81.401,2.1 L81.401,2.7 L81.401,3.2 L81.401,3.499 L81.501,4.5 L81.501,4.8 L81.401,5.8 L81.401,7.5 L81.401,8.5 L81.401,8.799 L81.501,9.799 L81.501,10.1 L81.501,11.1 L81.501,11.399 L81.401,12.399 L81.401,12.7 L81.401,13 L81.401,13.299 L81.401,13.7 L81.401,13.9 L81.501,14 L81.6,14.099 L81.8,14.099 L82.5,14.099 L84.201,14 L84.5,14 L85.5,14.099 L87,14.099 L87.3,14.099 L88.3,14 L88.6,14 L89.6,14.099 L89.9,14.099 L92.4,14 L92.5,13.9 L92.599,13.8 L92.599,13.6 L92.7,12.6 L92.7,12.299 L92.7,11.2 L92.5,11 L91.8,10.9 L91.5,10.9 L91.201,10.9 L89.8,11 L89.5,11 L88.099,10.9 L87.099,11 L86.8,11 L85.7,11 L85.5,11 L85.4,10.9 L85.3,10.799 L85.3,10.599 L85.3,10.2 L85.3,9.899 L85.4,9.4 L85.4,9.1 L85.5,9 L85.6,8.899 L85.8,8.899 L86.1,8.899 L86.901,9 L87.2,9 L88.401,9 L90,8.899 L90.3,8.899 L91.201,9 L91.599,9 L91.8,9 L91.901,8.899 L92,8.799 L92,8.6 L92,7.999 L92,7.6 L92,6.999 L92,6.7 L92,6.4 L92,6.2 L91.901,6.099 L91.8,5.999 L91.599,5.999 L91,5.999 L88.8,6.099 L87,6.099 L86.4,6.099 L85.8,6.099 L85.6,5.999 L85.5,5.9 L85.5,5.8 L85.5,5.6 L85.5,5.299 L85.5,5 L85.5,4.5 L85.5,4.299 L85.5,4.199 L85.6,4.1 L85.8,4.1 L86.001,4.1 L86.3,4.1 L87.2,4.199 L88.2,4.199 L88.5,4.199 L89.5,4.199 L89.8,4.199 L91.599,4.199 L91.901,4.199 L92,4.199 L92.201,4.199 L92.3,4.1 L92.4,4 L92.4,3.8 L92.4,3.499 L92.4,3.2 L92.4,2.7 L92.4,2.399 L92.4,1.9 L92.4,1.4 L92.4,1.1 L92.4,1 L92.3,0.899 L92,0.2 L91.5,0.2 Z M79,0.2 L78.099,0.3 L76.901,0.3 L76.4,0.3 L76.1,0.3 L76,0.3 L75.8,0.3 L75.7,0.4 L75.5,0.7 L75.4,1 L75.201,1.7 L75,2 L74.5,3 L74.4,3.299 L74.1,4.399 L74,4.7 L73.5,5.9 L73.401,6.2 L73.1,7.5 L73,7.799 L72.501,9 L72.401,9.2 L72.2,9.3 L72.1,9.2 L72,9 L71.5,7.4 L71.1,6.2 L71,5.9 L70.6,4.7 L70.5,4.399 L70.099,3.399 L70,3 L69.5,2 L69.401,1.7 L69.2,1.1 L69.099,0.799 L69,0.599 L68.901,0.4 L68.701,0.4 L68.4,0.4 L67.2,0.3 L66.3,0.3 L65.5,0.2 L65.201,0.2 L65.1,0.2 L64.901,0.3 L64.8,0.4 L64.7,0.599 L64.7,0.899 L64.8,1.1 L64.901,1.4 L65.3,2 L65.4,2.299 L65.7,3.399 L65.8,3.7 L66.3,4.7 L66.4,5 L66.8,5.999 L66.901,6.299 L67.4,7.4 L67.5,7.7 L68.001,8.699 L68.1,9 L68.4,10.1 L68.5,10.4 L68.901,11.399 L69,11.7 L69.5,12.8 L69.6,13.1 L70,14.099 L70.099,14.299 L70.2,14.399 L70.5,14.399 L70.8,14.399 L71.9,14.299 L72.2,14.299 L73.599,14.299 L73.8,14.299 L73.901,14.2 L74,14 L74.4,13 L74.5,12.7 L75,11.7 L75.1,11.399 L75.5,10.4 L75.6,10.1 L76.1,9.1 L76.2,8.799 L76.6,7.799 L76.7,7.5 L77.1,6.5 L77.2,6.2 L77.5,5.099 L77.6,4.8 L78.099,3.8 L78.2,3.499 L78.5,2.399 L78.6,2.1 L78.9,1.599 L79,1.3 L79.099,1.1 L79.2,0.799 L79.099,0.599 L79.6,0.3 L79.401,0.2 L79,0.2 Z M50.4,0.2 L50.1,0.3 L50.001,0.5 L49.9,0.799 L49.9,1.1 L49.9,1.4 L49.9,2 L49.9,3.8 L49.8,5 L49.8,5.299 L49.8,6.5 L49.8,6.799 L49.7,7.999 L49.7,8.3 L49.7,9 L49.7,9.3 L49.8,9.599 L49.9,10 L50.001,10.3 L50.1,10.599 L50.2,10.9 L50.3,11.2 L50.5,11.499 L50.701,11.799 L51,12.299 L51.2,12.499 L51.5,12.8 L51.701,13 L52.2,13.399 L52.5,13.6 L52.8,13.8 L53.2,14 L53.5,14.099 L53.7,14.2 L54,14.299 L54.2,14.299 L54.501,14.399 L55.599,14.5 L55.901,14.5 L56.3,14.5 L57.201,14.5 L57.8,14.5 L58.1,14.399 L58.5,14.299 L58.8,14.2 L59.2,14 L59.5,13.9 L59.901,13.7 L60.2,13.6 L60.6,13.399 L60.9,13.199 L61.3,12.9 L61.6,12.7 L61.8,12.399 L62,12.1 L62.3,11.7 L62.401,11.399 L62.6,11 L62.7,10.7 L62.9,10.3 L63,10 L63.1,9.599 L63.2,9.3 L63.3,8.799 L63.3,8.5 L63.3,8.1 L63.3,7.799 L63.3,7.2 L63,6.6 L63.1,5.399 L63.1,5.099 L63.1,3.9 L63.1,3.6 L63,2.399 L63.1,2.1 L63.1,1.7 L63.1,1.4 L63.1,0.799 L63.1,0.599 L62.9,0.5 L62.6,0.4 L62.3,0.4 L62,0.4 L61.2,0.5 L61,0.5 L60,0.4 L59.6,0.4 L59.3,0.5 L59.1,0.7 L59.001,1 L59.001,1.499 L59.1,2.299 L59.1,2.6 L59.1,3.8 L59.1,4.1 L59.1,5.299 L59.1,5.6 L59.001,6.799 L59.001,7.1 L59.1,8.3 L59.1,8.6 L59.001,9.2 L58.901,9.5 L58.8,9.799 L58.7,10.1 L58.5,10.499 L58.3,10.7 L58,11 L57.7,11.2 L57.3,11.399 L57,11.499 L56.5,11.6 L56.201,11.6 L55.7,11.6 L55.401,11.499 L55,11.299 L54.7,11.1 L54.401,10.799 L54.2,10.599 L54,10.2 L53.9,9.899 L53.8,9.5 L53.7,9.2 L53.7,8.699 L53.7,8.4 L53.7,7.2 L53.7,6.899 L53.8,5.7 L53.8,5.399 L53.8,4.199 L53.8,3.9 L53.7,2.7 L53.7,2.399 L53.7,1.599 L53.7,1.3 L53.7,1 L53.601,0.7 L53.4,0.5 L53.1,0.4 L52.701,0.4 L52.4,0.4 L51.8,0.4 L51.5,0.4 L51,0.2 L50.4,0.2 Z M46.7,0.2 L46,0.3 L45.7,0.3 L43.1,0.3 L42.8,0.3 L41.6,0.4 L41.3,0.4 L40.101,0.3 L39.8,0.3 L38.6,0.3 L37.3,0.2 L37,0.2 L36.8,0.2 L36.7,0.3 L36.6,0.5 L36.6,0.799 L36.501,1.799 L36.501,2.1 L36.501,2.7 L36.501,3.2 L36.501,3.499 L36.6,4.5 L36.6,4.8 L36.501,5.8 L36.501,7.5 L36.501,8.5 L36.501,8.799 L36.6,9.799 L36.6,10.1 L36.6,11.1 L36.6,11.399 L36.501,12.399 L36.501,12.7 L36.501,13 L36.501,13.299 L36.501,13.7 L36.501,13.9 L36.6,14 L36.7,14.099 L36.9,14.099 L37.6,14.099 L39.3,14 L39.6,14 L40.6,14.099 L41.9,14.099 L42.2,14.099 L43.2,14 L43.5,14 L44.5,14.099 L44.8,14.099 L47.3,14 L47.4,13.9 L47.5,13.8 L47.5,13.6 L47.6,12.6 L47.6,12.299 L47.5,11.2 L47.9,11.2 L47.7,11 L47,10.9 L46.7,10.9 L46.4,10.9 L45,11 L44.7,11 L43.3,10.9 L42.3,11 L42,11 L40.9,11 L40.7,11 L40.6,10.9 L40.5,10.799 L40.5,10.599 L40.5,10.2 L40.5,9.899 L40.6,9.4 L40.6,9.1 L40.7,9 L40.8,8.899 L41.001,8.899 L41.3,8.899 L42.1,9 L42.4,9 L43.601,9 L45.2,8.899 L45.501,8.899 L46.4,9 L46.8,9 L47,9 L47.1,8.899 L47.201,8.799 L47.201,8.6 L47.201,7.999 L47.201,7.6 L47.201,6.999 L47.201,6.7 L47.201,6.4 L47.201,6.2 L47.1,6.099 L47,5.7 L46.8,5.7 L46.201,5.7 L44,5.7 L42.2,5.7 L41.6,5.7 L41.001,5.7 L40.8,5.6 L40.7,5.5 L40.7,5.399 L40.7,5.2 L40.7,4.9 L40.7,4.6 L40.7,4.1 L40.7,3.9 L40.7,3.8 L40.8,3.7 L41.001,3.7 L41.2,3.7 L41.5,3.7 L42.4,3.8 L43.4,3.8 L43.701,3.8 L44.7,3.8 L45,3.8 L46.8,3.8 L47.1,3.8 L47.3,3.8 L47.5,3.8 L47.6,3.7 L47.7,3.6 L47.7,3.399 L47.7,3.1 L47.7,2.799 L47.7,2.299 L47.7,2 L47.7,1.499 L47.7,1 L47.7,0.7 L47.7,0.599 L47.6,0.5 L47.201,0.2 L46.7,0.2 Z M10.201,1 L10.1,1 L10.1,1.2 L10.1,1.3 L10.1,1.499 L10.1,2.2 L10.1,2.399 L10.1,2.799 L10.1,3.1 L10.1,3.299 L10.1,4 L10.1,4.199 L10,4.7 L10,5.8 L10,6.5 L10,6.7 L10,7.4 L10,7.6 L10,8.3 L10,8.5 L9.9,9.2 L9.9,9.4 L9.9,9.599 L9.9,9.799 L9.9,10.1 L9.9,10.2 L9.9,10.3 L10,10.4 L10.201,10.4 L10.6,10.4 L11.7,10.3 L12,10.3 L12.7,10.4 L13.6,10.4 L13.8,10.4 L14.5,10.3 L14.701,10.3 L15.4,10.4 L15.6,10.4 L17.2,10.3 L17.3,10.2 L17.4,10.1 L17.4,10 L17.5,9.3 L17.5,9.1 L17.5,8.4 L17.2,8.2 L17.1,8.1 L16.601,7.999 L16.4,7.999 L16.2,7.999 L15.3,8.1 L15.1,8.1 L14.2,7.999 L13.5,8.1 L13.3,8.1 L12.6,8.1 L12.5,8.1 L12.4,7.999 L12.4,7.899 L12.4,7.799 L12.4,7.5 L12.4,7.299 L12.4,6.999 L12.4,6.799 L12.4,6.7 L12.5,6.7 L12.7,6.7 L12.9,6.7 L13.4,6.7 L13.6,6.7 L14.4,6.7 L15.4,6.6 L15.6,6.6 L16.2,6.7 L16.5,6.7 L16.601,6.7 L16.701,6.6 L16.8,6.5 L16.8,6.299 L16.8,5.9 L16.8,5.6 L16.8,5.2 L16.8,5 L16.8,4.8 L16.8,4.7 L16.8,4.6 L16.701,4.5 L16.601,4.5 L16.2,4.5 L14.8,4.6 L13.6,4.6 L13.2,4.6 L12.8,4.6 L12.7,4.6 L12.6,4.5 L12.6,4.399 L12.6,4.299 L12.6,4.1 L12.6,3.9 L12.6,3.6 L12.6,3.499 L12.6,3.399 L12.7,3.299 L12.8,3.299 L12.9,3.299 L13,3.299 L13.6,3.299 L14.3,3.299 L14.5,3.299 L15.1,3.299 L15.3,3.299 L16.5,3.299 L16.701,3.299 L16.8,3.299 L17,3.299 L17.1,3.299 L17,3.2 L17,3.1 L17,2.9 L17,2.7 L17,2.399 L17,2.2 L17,1.9 L17,1.599 L17,1.4 L17,1.3 L16.9,1.2 L16.701,1.2 L16.4,1.2 L16,1.2 L15.8,1.2 L14.1,1.2 L13.9,1.2 L13.101,1.2 L12.9,1.2 L12.101,1.1 L12,1.1 L11.201,1.1 L10.4,1 L10.201,1 Z M5.2,1.2 L5.001,1.2 L4.8,1.2 L4.4,1.2 L4.101,1.2 L3.9,1.2 L3.7,1.2 L3.201,1.2 L2.9,1.2 L2.8,1.2 L2.201,1.2 L2,1.2 L0.9,1.2 L0.7,1.2 L0.501,1.2 L0.3,1.2 L0.2,1.2 L0.1,1.3 L0.1,1.4 L0.1,1.599 L0.1,1.799 L0.1,2.299 L0.1,3 L0.1,3.2 L0.1,3.9 L0.1,4.1 L0,4.7 L0,4.9 L0,5 L0,5.2 L0,5.5 L0,5.7 L0,5.9 L0,6.099 L0,6.4 L0,6.6 L0,7.299 L0,7.5 L0,8.2 L0,8.4 L0,8.6 L0,8.799 L0,9.1 L0,9.3 L0,9.7 L0,9.799 L0,10 L0,10.1 L0.2,10.2 L0.7,10.3 L0.9,10.3 L1.8,10.3 L2,10.3 L2.201,10.3 L2.5,10.3 L2.9,10.3 L3.101,10.3 L3.4,10.3 L3.8,10.3 L4,10.3 L4.3,10.3 L4.5,10.3 L5.3,10.2 L5.5,10.2 L5.701,10.1 L5.9,10 L6.2,9.899 L6.4,9.799 L6.701,9.7 L6.9,9.599 L7.1,9.4 L7.3,9.3 L7.601,9 L7.799,8.799 L7.9,8.699 L8.1,8.5 L8,8.2 L8.1,7.899 L8.2,7.7 L8.3,7.5 L8.4,7.299 L8.5,7.1 L8.601,6.899 L8.7,6.6 L8.7,6.4 L8.7,6.099 L8.7,5.9 L8.7,5.7 L8.7,5.5 L8.7,5.2 L8.7,5 L8.7,4.8 L8.7,4.6 L8.601,4.299 L8.5,4.1 L8.4,3.9 L8.3,3.7 L8.2,3.499 L8.1,3.299 L8,3.1 L8,2.9 L7.9,2.799 L7.799,2.7 L7.5,2.399 L7.3,2.2 L7.1,2.1 L6.701,1.799 L6.5,1.7 L6.3,1.599 L6.1,1.499 L5.6,1.3 L5.4,1.2 L5.2,1.2 Z M2.6,7.999 L2.5,7.899 L2.5,7.6 L2.5,7.4 L2.5,7.1 L2.5,6.899 L2.5,6.6 L2.5,6.4 L2.5,6.2 L2.5,5.6 L2.5,5.299 L2.5,5.099 L2.5,4.9 L2.5,4.7 L2.5,4.399 L2.5,4.199 L2.5,3.8 L2.6,3.7 L2.6,3.399 L2.7,3.299 L2.8,3.299 L3.101,3.299 L3.299,3.299 L3.6,3.299 L3.9,3.299 L4.101,3.299 L4.4,3.299 L4.6,3.299 L4.8,3.299 L5.001,3.399 L5.3,3.6 L5.5,3.7 L5.6,3.8 L5.701,3.9 L5.8,4 L6,4.299 L6,4.5 L6,4.6 L6.1,4.8 L6.1,5.099 L6.1,5.299 L6.1,5.7 L6.1,5.999 L6.1,6.2 L6,6.4 L6,6.6 L5.9,6.799 L5.8,6.999 L5.6,7.2 L5.5,7.4 L5.3,7.6 L5.1,7.7 L5.001,7.799 L4.8,7.899 L4.6,7.999 L4.4,7.999 L4.101,7.999 L2.9,8.1 L2.7,8.1 L2.6,7.999 Z M0,14.299 L17.3,14.299 L17.3,13.199 L0,13.199 L0,14.299 Z" id="Fill-1" fill="#3d3d3d"></path>
    </g>
</svg>